# AST/ASF file generated using VICON BodyLanguage
# -----------------------------------------------
:version 1.10
:name VICON
:units
  mass 1.0
  length 0.45
  angle deg
:documentation
   .ast/.asf automatically generated from VICON data using
   VICON BodyBuilder and BodyLanguage model FoxedUp or BRILLIANT.MOD
:root
   order TX TY TZ RX RY RZ
   axis XYZ
   position 0 0 0  
   orientation 0 0 0 
:bonedata
  begin
     id 1 
     name lhipjoint
     direction 0.54267 -0.795011 0.271047 
     length 2.39899 
     axis 0 0 0  XYZ
  end
  begin
     id 2 
     name lfemur
     direction 0.34202 -0.939693 0  
     length 7.49701  
     axis 0 0 20  XYZ
    dof rx ry rz
    limits (-160.0 20.0)
           (-70.0 70.0)
           (-60.0 70.0)
  end
  begin
     id 3 
     name ltibia
     direction 0.34202 -0.939693 0   
     length 8.1668   
     axis 0 0 20   XYZ
    dof rx
    limits (-10.0 170.0)
  end
  begin
     id 4 
     name lfoot
     direction 0.0736283 -0.202292 0.976554   
     length 2.13544   
     axis -90 7.62852e-016 20   XYZ
    dof rx rz
    limits (-45.0 90.0)
           (-70.0 20.0)
  end
  begin
     id 5 
     name ltoes
     direction 1.53557e-011 -4.22024e-011 1   
     length 1.07411   
     axis -90 7.62852e-016 20   XYZ
    dof rx
    limits (-90.0 20.0)
  end
  begin
     id 6 
     name rhipjoint
     direction -0.538061 -0.797813 0.272002   
     length 2.39057  
     axis 0 0 0  XYZ 
  end
  begin
     id 7 
     name rfemur
     direction -0.34202 -0.939693 0   
     length 7.50152   
     axis 0 0 -20   XYZ
    dof rx ry rz
    limits (-160.0 20.0)
           (-70.0 70.0)
           (-70.0 60.0)
  end
  begin
     id 8 
     name rtibia
     direction -0.34202 -0.939693 0   
     length 8.05793   
     axis 0 0 -20   XYZ
    dof rx
    limits (-10.0 170.0)
 end
 begin
     id 9 
     name rfoot
     direction -0.0765195 -0.210236 0.974652   
     length 2.28698  
     axis -90 -7.62852e-016 -20   XYZ
    dof rx rz
    limits (-45.0 90.0)
           (-20.0 70.0)
  end
  begin
     id 10 
     name rtoes
     direction -1.53542e-011 -4.21847e-011 1   
     length 1.14762   
     axis -90 -7.62852e-016 -20   XYZ
    dof rx
    limits (-90.0 20.0)
  end
  begin
     id 11 
     name lowerback
     direction -0.0217239 0.996592 -0.0795765   
     length 2.08176   
     axis 0 0 0   XYZ
    dof rx ry rz
    limits (-20.0 45.0)
           (-30.0 30.0)
           (-30.0 30.0)
  end
  begin
     id 12 
     name upperback
     direction -0.00563773 0.999651 -0.0258155   
     length 2.08898   
     axis 0 0 0   XYZ
    dof rx ry rz
    limits (-20.0 45.0)
           (-30.0 30.0)
           (-30.0 30.0)
  end
  begin
     id 13 
     name thorax
     direction 0.0032706 0.999923 0.0119599   
     length 2.0968   
     axis 0 0 0   XYZ
    dof rx ry rz
    limits (-20.0 45.0)
           (-30.0 30.0)
           (-30.0 30.0)
  end
  begin
     id 14 
     name lowerneck
     direction -0.0285886 0.99568 0.0883427   
     length 1.81272   
     axis 0 0 0   XYZ
    dof rx ry rz
    limits (-20.0 45.0)
           (-30.0 30.0)
           (-30.0 30.0)
  end
  begin
     id 15 
     name upperneck
     direction 0.0807535 0.97985 -0.18268   
     length 1.82518   
     axis 0 0 0   XYZ
    dof rx ry rz
    limits (-20.0 45.0)
           (-30.0 30.0)
           (-30.0 30.0)
  end
  begin
     id 16
     name head
     direction 0.0236605 0.997053 -0.0729767  
     length 1.84443  
     axis 0 0 0   XYZ
    dof rx ry rz
    limits (-20.0 45.0)
           (-30.0 30.0)
           (-30.0 30.0)
  end
  begin
     id 17 
     name lclavicle
     direction 0.918986 0.39378 -0.0200683  
     length 3.27822  
     axis 0 0 0   XYZ
    dof ry rz
    limits (-20.0 10.0)
           (0.0 20.0)
  end
  begin
     id 18 
     name lhumerus
     direction 1 -4.4897e-011 2.09544e-027   
     length 5.5568   
     axis 180 -30 -90   XYZ
    dof rx ry rz
    limits (-60.0 90.0)
           (-90.0 90.0)
           (-90.0 90.0)
  end
  begin
     id 19
     name lradius
     direction 1 -4.48957e-011 -1.27696e-026   
     length 3.63979   
     axis 180 -30 -90   XYZ
    dof rx
    limits (-10.0 170.0)
  end
  begin
     id 20
     name lwrist
     direction 1 -4.49001e-011 -1.49001e-026   
     length 1.8199   
     axis 9.0955e-015 90 90   XYZ
    dof ry
    limits (-180.0 0.0)
 end
  begin
     id 21 
     name lhand
     direction 1 -4.48709e-011 -2.9758e-026   
     length 0.569419   
     axis 1.90115e-014 90 90   XYZ
    dof rx rz
    limits (-90.0 90.0)
           (-45.0 45.0)
  end
  begin
     id 22 
     name lfingers
     direction 1 -4.49175e-011 -5.96505e-026   
     length 0.45908   
     axis 3.80223e-014 90 90   XYZ
    dof rx
    limits (0.0 90.0)
  end
  begin
     id 23
     name lthumb
     direction 0.707107 -6.34864e-011 0.707107   
     length 0.65915   
     axis -90 45 -3.84942e-014   XYZ
    dof rx rz
    limits (-45.0 45.0)
           (-45.0 45.0)
  end
  begin
     id 24 
     name rclavicle
     direction -0.911913 0.396426 -0.106115   
     length 3.46301  
     axis 0 0 0   XYZ 
    dof ry rz
    limits (-10.0 20.0)
           (-20.0 0.0)
  end
  begin
     id 25 
     name rhumerus
     direction -1 -4.48965e-011 7.78516e-028  
     length 5.34339   
     axis 180 30 90   XYZ
    dof rx ry rz
    limits (-90.0 60.0)
           (-90.0 90.0)
           (-90.0 90.0)
  end
  begin
     id 26 
     name rradius
     direction -1 -4.48948e-011 -5.79823e-027   
     length 3.65101   
     axis 180 30 90   XYZ
    dof rx
    limits (-10.0 170.0)
  end
  begin
     id 27 
     name rwrist
     direction -1 -4.48995e-011 -1.48996e-026   
     length 1.8255   
     axis 9.0955e-015 -90 -90   XYZ
    dof ry
    limits (-180.0 0.0)
  end
  begin
     id 28
     name rhand
     direction -1 -4.48957e-011 -2.97937e-026   
     length 0.694249   
     axis 1.90115e-014 -90 -90   XYZ
    dof rx rz
    limits (-90.0 90.0)
           (-45.0 45.0)
  end
  begin
     id 29
     name rfingers
     direction -1 -4.4898e-011 -5.95943e-026   
     length 0.559721   
     axis 3.80223e-014 -90 -90   XYZ
    dof rx
    limits (0.0 90.0)
  end
  begin
     id 30
     name rthumb
     direction -0.707107 -6.34969e-011 0.707107   
     length 0.803651   
     axis -90 -45 3.84942e-014   XYZ
    dof rx rz
    limits (-45.0 45.0)
           (-45.0 45.0)
  end
:hierarchy
  begin
    root lhipjoint rhipjoint lowerback
    lhipjoint lfemur
    lfemur ltibia
    ltibia lfoot
    lfoot ltoes
    rhipjoint rfemur
    rfemur rtibia
    rtibia rfoot
    rfoot rtoes
    lowerback upperback
    upperback thorax
    thorax lowerneck lclavicle rclavicle
    lowerneck upperneck
    upperneck head
    lclavicle lhumerus
    lhumerus lradius
    lradius lwrist
    lwrist lhand lthumb
    lhand lfingers
    rclavicle rhumerus
    rhumerus rradius
    rradius rwrist
    rwrist rhand rthumb
    rhand rfingers
  end

#!OML:ASF H:\Terrain\Walking\May29\JustinRory\rory.ASF
:FULLY-SPECIFIED
:DEGREES
227
root -14.271 17.9079 -7.01318 8.16042 18.7289 -4.02811
lowerback 2.13924 -2.08945 -4.98724
upperback 1.35147 -2.87032 2.32194
thorax 0.560305 -1.48781 5.23782
lowerneck -13.1754 2.64157 2.34552
upperneck 20.1094 4.79138 -7.29966
head 8.6868 1.70046 -2.3088
rclavicle -7.95139e-015 -1.31198e-014
rhumerus -37.3937 -11.0006 -66.0592
rradius 35.1041
rwrist 4.45123
rhand -13.1379 35.1248
rfingers 7.12502
rthumb 12.9603 5.54734
lclavicle -7.95139e-015 -1.31198e-014
lhumerus -15.1212 -19.9309 84.3078
lradius 17.7656
lwrist -11.7747
lhand -23.6836 11.6887
lfingers 7.12502
lthumb 2.78289 41.6503
rfemur -16.6129 14.9668 15.9108
rtibia 36.9244
rfoot -15.7726 3.92289
rtoes -4.69015
lfemur -6.35545 5.96148 -26.002
ltibia 34.2791
lfoot -6.92401 -8.07519
ltoes -11.1988
228
root -14.279 17.8981 -6.94849 8.17157 18.4507 -4.23857
lowerback 2.05684 -2.13984 -4.89099
upperback 1.27029 -2.9337 2.46666
thorax 0.533586 -1.51721 5.33304
lowerneck -13.1465 2.96834 2.37686
upperneck 19.7836 5.27147 -7.55704
head 8.60662 1.90979 -2.34225
rclavicle -1.90833e-014 -2.78299e-015
rhumerus -36.9205 -10.9857 -65.9534
rradius 35.4479
rwrist 4.37881
rhand -12.8395 35.2516
rfingers 7.12502
rthumb 13.2479 5.69263
lclavicle -1.90833e-014 -2.78299e-015
lhumerus -15.0828 -19.7617 83.8029
lradius 17.9714
lwrist -12.748
lhand -23.2333 11.037
lfingers 7.12502
lthumb 3.2178 40.9924
rfemur -16.0633 14.3858 16.5201
rtibia 36.2948
rfoot -16.265 3.05083
rtoes -6.19952
lfemur -6.41433 6.3088 -25.6044
ltibia 34.7587
lfoot -6.70454 -8.31658
ltoes -11.361
229
root -14.2847 17.8955 -6.87852 8.26412 18.1698 -4.15418
lowerback 1.96681 -2.17382 -5.0356
upperback 1.25728 -2.97792 2.47648
thorax 0.584654 -1.54192 5.42175
lowerneck -13.0899 3.21415 2.35945
upperneck 19.2727 5.60962 -7.71103
head 8.4477 2.06508 -2.34801
rclavicle 3.20043e-014 2.10712e-014
rhumerus -36.3345 -10.9142 -66.0232
rradius 35.6329
rwrist 4.2922
rhand -12.9727 35.5278
rfingers 7.12502
rthumb 13.1195 5.96052
lclavicle 3.20043e-014 2.10712e-014
lhumerus -14.8052 -19.8672 83.2233
lradius 17.9324
lwrist -13.1758
lhand -22.7844 10.4859
lfingers 7.12502
lthumb 3.6513 40.4344
rfemur -15.6283 13.8941 16.7369
rtibia 35.723
rfoot -16.5591 2.79071
rtoes -5.46327
lfemur -6.57542 7.01154 -25.4611
ltibia 35.4326
lfoot -6.39458 -8.8099
ltoes -11.7131
230
root -14.2891 17.8929 -6.81692 8.31476 18.0119 -4.40853
lowerback 1.8569 -2.20259 -4.69615
upperback 1.28737 -3.00647 2.52612
thorax 0.665411 -1.55685 5.27539
lowerneck -13.2725 3.44266 2.41076
upperneck 19.0967 5.91292 -7.77071
head 8.44299 2.20504 -2.33771
rclavicle -1.19271e-015 -2.94201e-014
rhumerus -35.4876 -11.0897 -66.1488
rradius 35.4388
rwrist 4.43656
rhand -13.188 35.5234
rfingers 7.12502
rthumb 12.912 5.94285
lclavicle -1.19271e-015 -2.94201e-014
lhumerus -14.4198 -20.2768 82.6846
lradius 17.7956
lwrist -12.8837
lhand -23.0523 10.0025
lfingers 7.12502
lthumb 3.39259 39.9552
rfemur -15.2983 13.4259 17.2629
rtibia 35.2689
rfoot -16.5241 2.70776
rtoes -3.56147
lfemur -7.03593 7.77065 -24.944
ltibia 36.3227
lfoot -5.91382 -9.33624
ltoes -11.7545
231
root -14.2927 17.8801 -6.75331 8.22481 17.9547 -4.91176
lowerback 1.69126 -2.18026 -4.13471
upperback 1.32255 -2.96337 2.65015
thorax 0.765862 -1.5346 5.07839
lowerneck -13.3314 3.55138 2.50869
upperneck 18.9713 6.0661 -7.92869
head 8.42895 2.27021 -2.38761
rclavicle -7.35503e-015 2.78299e-015
rhumerus -34.8611 -11.3886 -66.1321
rradius 35.439
rwrist 4.11574
rhand -12.4646 34.9569
rfingers 7.12502
rthumb 13.6093 5.42174
lclavicle -7.35503e-015 2.78299e-015
lhumerus -13.9727 -21.6138 82.2623
lradius 17.7118
lwrist -11.9961
lhand -22.5711 10.3945
lfingers 7.12502
lthumb 3.85731 40.3393
rfemur -14.8596 12.9513 18.0911
rtibia 34.9584
rfoot -16.8343 2.13804
rtoes -5.18492
lfemur -7.57834 8.48123 -24.1198
ltibia 37.4676
lfoot -4.67309 -9.71307
ltoes -8.23504
232
root -14.2985 17.8615 -6.69101 8.10225 17.804 -5.32778
lowerback 1.55224 -2.0229 -3.73857
upperback 1.31126 -2.74466 2.7042
thorax 0.789131 -1.42191 4.90503
lowerneck -12.9279 3.55686 2.83699
upperneck 18.646 6.04701 -8.24944
head 8.26517 2.27219 -2.5552
rclavicle 3.47873e-014 2.78299e-015
rhumerus -34.7416 -11.6011 -66.1181
rradius 35.6392
rwrist 3.56307
rhand -12.2455 34.9427
rfingers 7.12502
rthumb 13.8204 5.42183
lclavicle 3.47873e-014 2.78299e-015
lhumerus -13.8142 -26.107 82.1851
lradius 17.9208
lwrist -7.90981
lhand -22.3789 11.3247
lfingers 7.12502
lthumb 4.0429 41.2661
rfemur -14.4544 12.6038 18.7696
rtibia 34.7787
rfoot -17.389 1.80734
rtoes -5.38611
lfemur -8.24127 9.31942 -23.3555
ltibia 38.8925
lfoot -3.13877 -10.2443
ltoes -10.9788
233
root -14.3023 17.8511 -6.63865 8.03246 17.6423 -5.71896
lowerback 1.80188 -1.9271 -3.28378
upperback 1.0975 -2.61647 2.75716
thorax 0.395738 -1.34089 4.71718
lowerneck -12.4804 3.76907 3.26293
upperneck 18.4383 6.34196 -8.73575
head 8.16298 2.41237 -2.75994
rclavicle 9.74045e-015 -2.38542e-015
rhumerus -34.7874 -11.582 -66.2162
rradius 35.7393
rwrist 3.42591
rhand -12.8995 35.4144
rfingers 7.12502
rthumb 13.1901 5.85169
lclavicle 9.74045e-015 -2.38542e-015
lhumerus -13.5427 -24.7122 81.7012
lradius 17.5311
lwrist -9.13773
lhand -22.8422 10.8966
lfingers 7.12502
lthumb 3.59551 40.8461
rfemur -14.2754 12.3296 19.2732
rtibia 34.6805
rfoot -17.7632 2.33654
rtoes -1.72348
lfemur -9.17457 10.0295 -22.6278
ltibia 40.5625
lfoot -1.96967 -11.0625
ltoes -18.4714
234
root -14.3003 17.8436 -6.58618 8.06857 17.4923 -5.88567
lowerback 2.09494 -1.92105 -2.97839
upperback 0.977334 -2.60826 2.77237
thorax 0.0936477 -1.32625 4.57438
lowerneck -12.6171 4.0881 3.57311
upperneck 18.3782 6.79719 -9.13189
head 8.22452 2.60897 -2.88989
rclavicle -4.14466e-014 -1.98785e-015
rhumerus -34.4117 -11.5109 -66.4525
rradius 35.8477
rwrist 3.42594
rhand -13.1352 35.408
rfingers 7.12502
rthumb 12.9629 5.83069
lclavicle -4.14466e-014 -1.98785e-015
lhumerus -12.1298 -12.1383 80.1019
lradius 16.275
lwrist -21.303
lhand -22.3363 8.92878
lfingers 7.12502
lthumb 4.084 38.8694
rfemur -14.1722 11.8316 19.4348
rtibia 34.5896
rfoot -17.7442 3.25955
rtoes -0.374228
lfemur -10.297 10.5346 -22.1835
ltibia 42.4444
lfoot -0.037509 -10.9805
ltoes -7.20859
235
root -14.2984 17.8312 -6.52814 8.07474 17.3489 -6.05476
lowerback 1.99403 -1.79805 -2.72527
upperback 1.1228 -2.43839 2.73363
thorax 0.269789 -1.24552 4.382
lowerneck -12.6233 4.11369 3.72877
upperneck 17.8143 6.75574 -9.17324
head 8.04164 2.61027 -2.92947
rclavicle -1.42131e-014 1.94809e-014
rhumerus -33.8929 -11.9036 -66.6001
rradius 35.9694
rwrist 3.62605
rhand -13.0044 35.2917
rfingers 7.12502
rthumb 13.089 5.72245
lclavicle -1.42131e-014 1.94809e-014
lhumerus -11.33 -17.7928 79.8393
lradius 16.4414
lwrist -15.8677
lhand -22.48 9.73536
lfingers 7.12502
lthumb 3.94525 39.6786
rfemur -13.9818 11.3153 19.6041
rtibia 34.4834
rfoot -17.5829 4.11771
rtoes -0.178113
lfemur -11.5034 11.0984 -21.7034
ltibia 44.4924
lfoot 2.04174 -10.6987
ltoes 4.39188
236
root -14.2999 17.8107 -6.47405 7.97573 17.3098 -6.52843
lowerback 1.95416 -1.65789 -2.21459
upperback 1.1869 -2.24231 2.81201
thorax 0.321946 -1.14619 4.16983
lowerneck -12.0772 4.0567 3.79116
upperneck 16.9635 6.59852 -9.19101
head 7.65352 2.57547 -2.96466
rclavicle 1.08338e-014 -4.45278e-014
rhumerus -33.7929 -12.179 -66.6118
rradius 36.4103
rwrist 3.56656
rhand -12.848 35.3876
rfingers 7.12502
rthumb 13.2398 5.82807
lclavicle 1.08338e-014 -4.45278e-014
lhumerus -10.592 -14.1146 79.1091
lradius 16.4098
lwrist -19.5636
lhand -21.6462 9.9634
lfingers 7.12502
lthumb 4.75036 39.8901
rfemur -13.8086 10.8694 20.1765
rtibia 34.3553
rfoot -17.8381 4.29294
rtoes -1.53066
lfemur -12.8743 11.5498 -20.8069
ltibia 46.664
lfoot 3.90948 -11.129
ltoes -3.12268
237
root -14.2988 17.7814 -6.42589 7.85793 17.3333 -6.75756
lowerback 2.34851 -1.6768 -1.92564
upperback 1.16906 -2.26415 2.90849
thorax 0.0772297 -1.15128 4.12073
lowerneck -12.2126 4.21831 3.58081
upperneck 16.8335 6.83072 -9.09378
head 7.64174 2.68049 -2.86873
rclavicle 9.34288e-015 3.06128e-014
rhumerus -33.7195 -11.6869 -66.8244
rradius 37.2715
rwrist 3.17061
rhand -12.8125 35.1203
rfingers 7.12502
rthumb 13.274 5.56304
lclavicle 9.34288e-015 3.06128e-014
lhumerus -10.4156 -15.6946 78.7073
lradius 16.9855
lwrist -17.2612
lhand -20.6566 10.9044
lfingers 7.12502
lthumb 5.70593 40.8076
rfemur -13.5567 10.1622 20.4859
rtibia 34.1732
rfoot -18.1982 4.39061
rtoes -5.17266
lfemur -14.3094 11.7869 -20.1798
ltibia 48.9161
lfoot 6.12823 -11.2329
ltoes -8.86943
238
root -14.2939 17.7545 -6.37322 7.508 17.4684 -6.76906
lowerback 2.93865 -1.75306 -1.89466
upperback 1.38569 -2.36971 2.98294
thorax -0.0192774 -1.20544 4.19918
lowerneck -12.8926 4.44418 3.17462
upperneck 16.8579 7.16041 -8.79879
head 7.76975 2.81749 -2.65553
rclavicle -6.13251e-014 2.5842e-014
rhumerus -33.1476 -11.2671 -67.1321
rradius 37.6622
rwrist 3.05076
rhand -13.1509 35.2629
rfingers 7.12502
rthumb 12.9477 5.68459
lclavicle -6.13251e-014 2.5842e-014
lhumerus -9.45711 -15.773 78.1734
lradius 16.9061
lwrist -16.3463
lhand -19.8025 10.9995
lfingers 7.12502
lthumb 6.53051 40.8788
rfemur -12.7757 9.51531 20.5348
rtibia 33.9195
rfoot -18.5934 4.86709
rtoes -7.00272
lfemur -15.4627 11.9315 -19.7491
ltibia 51.1943
lfoot 8.6154 -11.2449
ltoes -9.28094
239
root -14.2868 17.7314 -6.31791 7.17276 17.5445 -7.12085
lowerback 3.24675 -1.68495 -1.54903
upperback 1.63456 -2.27183 3.11482
thorax 0.0474008 -1.15883 4.14426
lowerneck -12.9651 4.56535 3.172
upperneck 16.2815 7.2974 -8.91365
head 7.60754 2.88589 -2.67367
rclavicle -2.71341e-014 1.19271e-014
rhumerus -32.6187 -11.0574 -67.3317
rradius 37.7403
rwrist 2.69091
rhand -13.8479 36.1939
rfingers 7.12502
rthumb 12.2758 6.57417
lclavicle -2.71341e-014 1.19271e-014
lhumerus -8.26543 -15.5758 77.6799
lradius 16.6115
lwrist -16.1182
lhand -19.5573 11.3669
lfingers 7.12502
lthumb 6.76718 41.2388
rfemur -12.0496 9.05716 20.9081
rtibia 33.6251
rfoot -19.2515 5.07561
rtoes -8.58965
lfemur -16.7811 12.0027 -18.9572
ltibia 53.4931
lfoot 10.6476 -11.555
ltoes -10.4206
240
root -14.2734 17.7246 -6.26358 7.11663 17.4272 -7.43023
lowerback 3.26529 -1.52523 -1.20526
upperback 1.80274 -2.05085 3.18612
thorax 0.181589 -1.04959 4.01558
lowerneck -12.8545 4.62431 3.28214
upperneck 15.7337 7.3417 -9.09449
head 7.42347 2.91631 -2.74617
rclavicle 2.17669e-014 2.38542e-014
rhumerus -32.3836 -10.7533 -67.48
rradius 38.1322
rwrist 2.14626
rhand -14.235 36.6081
rfingers 7.12502
rthumb 11.9025 6.96648
lclavicle 2.17669e-014 2.38542e-014
lhumerus -7.18481 -15.7817 77.1614
lradius 16.4978
lwrist -15.4999
lhand -19.4085 12.7819
lfingers 7.12502
lthumb 6.91087 42.6491
rfemur -11.8273 8.69432 21.1887
rtibia 33.3844
rfoot -19.084 5.91743
rtoes -8.45025
lfemur -18.5038 11.8947 -18.3171
ltibia 55.7635
lfoot 11.4988 -12.1543
ltoes -14.7837
